<svg xmlns="http://www.w3.org/2000/svg" viewBox="0 0 160 200" fill="none">
  <title>Knight</title>
  <defs>
    <linearGradient id="metal" x1="35" y1="40" x2="120" y2="155" gradientUnits="userSpaceOnUse"><stop stop-color="#87c9ec"/><stop offset="1" stop-color="#397296"/></linearGradient>
    <linearGradient id="skin" x1="55" y1="65" x2="100" y2="125" gradientUnits="userSpaceOnUse"><stop stop-color="#d9b297"/><stop offset="1" stop-color="#ad7e66"/></linearGradient>
  </defs>
  <path d="M21 187V78a59 59 0 01118 0v109" stroke="#87c9ec" stroke-opacity=".22" stroke-width="1.5"/>
  <path d="M29 126V78a51 51 0 01102 0v48" stroke="#87c9ec" stroke-opacity=".12"/>
  <ellipse cx="80" cy="190" rx="57" ry="5" fill="#080c19" opacity=".5"/>

  <path d="M75 54Q67 21 108 20L98 38Q85 33 86 57" fill="#6ba7cd" stroke="#bbdff4" stroke-width="2"/>
  <path d="M22 185l10-40 31-17h34l31 17 10 40" fill="#263c56" stroke="#87c9ec" stroke-width="2"/>
  <path d="M32 145l28-9-8 29-24 6m100-26-28-9 8 29 24 6" fill="url(#metal)" stroke="#cee8f5" stroke-width="2"/>
  <path d="M58 137l22 12 22-12-6 48H64z" fill="url(#metal)" stroke="#87c9ec" stroke-width="2"/>
  <path d="M80 150v35M65 163h30" stroke="#263c56" stroke-width="3"/>
  <path d="M51 70q1-26 29-28 28 2 29 28v43l-29 24-29-24z" fill="url(#metal)" stroke="#cee8f5" stroke-width="2"/>
  <path d="M80 44v90l27-22V73z" fill="#29445e" opacity=".65"/>
  <path d="M55 76l25 6 25-6-4 15-21 5-21-5z" fill="#111b2b"/>
  <path d="M58 80l19 4m6 0 19-4" stroke="#aee9ff" stroke-width="2"/>
  <path d="M65 102v12m10-10v19m10-19v19m10-21v12" stroke="#18283e" stroke-width="3"/>
</svg>
